<svg width="316" height="316" viewBox="0 0 316 316" fill="none" xmlns="http://www.w3.org/2000/svg">
<path fill-rule="evenodd" clip-rule="evenodd" d="M84.8501 48.5232C106.503 34.0555 131.959 26.3334 158 26.3334C175.291 26.3334 192.412 29.739 208.387 36.3559C224.361 42.9728 238.876 52.6713 251.103 64.8977C263.329 77.124 273.028 91.6389 279.644 107.613C286.261 123.588 289.667 140.709 289.667 158C289.667 184.041 281.945 209.498 267.477 231.15C253.009 252.803 232.446 269.679 208.387 279.644C184.328 289.61 157.854 292.217 132.313 287.137C106.773 282.056 83.3117 269.516 64.8978 251.102C46.4839 232.689 33.9439 209.228 28.8635 183.687C23.7831 158.146 26.3905 131.672 36.3561 107.613C46.3216 83.5545 63.1977 62.9909 84.8501 48.5232ZM132.647 152.853C129.563 154.914 125.936 156.014 122.226 156.014C117.251 156.014 112.481 154.038 108.963 150.521C105.445 147.003 103.469 142.232 103.469 137.257C103.469 133.547 104.569 129.921 106.63 126.836C108.691 123.752 111.621 121.347 115.048 119.928C118.476 118.508 122.247 118.137 125.886 118.86C129.524 119.584 132.866 121.371 135.49 123.994C138.113 126.617 139.899 129.959 140.623 133.598C141.347 137.236 140.975 141.008 139.556 144.435C138.136 147.863 135.732 150.792 132.647 152.853ZM105.431 210.71C105.751 207.259 107.419 204.074 110.073 201.845C123.66 190.924 140.568 184.971 158 184.971C175.431 184.971 192.34 190.924 205.927 201.845C208.58 204.074 210.249 207.259 210.569 210.71C210.889 214.161 209.836 217.599 207.638 220.278C206.533 221.612 205.175 222.714 203.644 223.521C202.112 224.329 200.435 224.827 198.711 224.986C196.986 225.145 195.247 224.962 193.594 224.448C191.94 223.934 190.404 223.099 189.073 221.99C180.272 214.894 169.306 211.024 158 211.024C146.694 211.024 135.728 214.894 126.927 221.99C125.596 223.099 124.06 223.934 122.406 224.448C120.752 224.962 119.014 225.145 117.289 224.986C115.564 224.827 113.888 224.329 112.356 223.521C110.824 222.714 109.467 221.612 108.362 220.278C106.163 217.599 105.11 214.161 105.431 210.71ZM203.719 152.853C200.635 154.914 197.008 156.014 193.298 156.014C188.324 156.014 183.553 154.038 180.035 150.521C176.517 147.003 174.541 142.232 174.541 137.257C174.541 133.547 175.641 129.921 177.702 126.836C179.763 123.752 182.693 121.347 186.12 119.928C189.548 118.508 193.319 118.137 196.958 118.86C200.596 119.584 203.938 121.371 206.562 123.994C209.185 126.617 210.971 129.959 211.695 133.598C212.419 137.236 212.048 141.008 210.628 144.435C209.208 147.863 206.804 150.792 203.719 152.853Z" fill="#353535"/>
</svg>
